# xmcd
#
# Track frame offsets: 
#        150
#        21624
#        42023
#        70276
#        94252
#        113099
#        139501
#        158381
#        181211
#        200947
#        223060
#        243972
#        264882
#
# Disc length: 3807 seconds
#
# Revision: 0
# Processed by: cddbd v1.5.2PL0 Copyright (c) Steve Scherf et al.
# Submitted via: ExactAudioCopy v0.99pb4
#
DISCID=b40edd0d
DTITLE=Toan Nguyen - Chon loc I
DYEAR=2009
DGENRE=Country
TTITLE0=Co nhung niem rieng_Toan Nguyen
TTITLE1=Doi da vang_Toan Nguyen
TTITLE2=Mat le cho nang_Toan Nguyen
TTITLE3=Niem khuc cuoi_Toan Nguyen
TTITLE4=Nua hon thuong dau_Toan Nguyen
TTITLE5=Mot ngay nao do cho anh gap em_Toan Nguyen
TTITLE6=Thu hat cho nguoi_Toan Nguyen
TTITLE7=Mot mai em di_Toan Nguyen
TTITLE8=Em den tham anh dem 30_Toan Nguyen
TTITLE9=Vet thuong cuoi cung_Toan Nguyen
TTITLE10=Tinh khuc chieu mua_Toan Nguyen
TTITLE11=Bai khong ten so 4_Toan Nguyen
TTITLE12=Toi di giua hoang hon_Toan Nguyen
EXTD=
EXTT0=
EXTT1=
EXTT2=
EXTT3=
EXTT4=
EXTT5=
EXTT6=
EXTT7=
EXTT8=
EXTT9=
EXTT10=
EXTT11=
EXTT12=
PLAYORDER=
